<?xml version="1.0" encoding="utf-8"?>
<!-- Generator: Adobe Illustrator 24.1.3, SVG Export Plug-In . SVG Version: 6.00 Build 0)  -->
<svg version="1.1" xmlns="http://www.w3.org/2000/svg" xmlns:xlink="http://www.w3.org/1999/xlink" x="0px" y="0px"
	 viewBox="0 0 500 500" style="enable-background:new 0 0 500 500;" xml:space="preserve">
<style type="text/css">
	.st0{display:none;}
	.st1{display:inline;fill:#FFFFFF;}
	.st2{fill:#EAF9F8;}
	.st3{fill:#E03C03;}
	.st4{fill:#FF6224;}
	.st5{fill:#FFC947;}
	.st6{fill:#20C3C5;}
	.st7{fill:#FFFFFF;}
	.st8{fill:#383873;}
	.st9{fill:#86BFBC;}
	.st10{fill:#B8E3E2;}
	.st11{fill:#9FCCC9;}
	.st12{opacity:0.15;fill:none;stroke:#000000;stroke-width:0.8185;stroke-linecap:round;stroke-miterlimit:10;}
	.st13{fill:#382424;}
	.st14{fill:#FFAD94;}
	.st15{opacity:0.25;}
	.st16{fill:#0C2059;}
	.st17{fill:#2E4780;}
	.st18{opacity:0.15;}
	.st19{fill:#169799;}
	.st20{fill:none;stroke:#000000;stroke-width:0.8185;stroke-linecap:round;stroke-miterlimit:10;}
	.st21{fill:none;stroke:#000000;stroke-width:0.8185;stroke-linecap:round;stroke-miterlimit:10;stroke-dasharray:4.1525,4.1525;}
	.st22{opacity:0.53;}
	.st23{display:inline;}
	.st24{fill:#1D262D;}
</style>
<g id="BACKGROUND" class="st0">
	<rect class="st1" width="500" height="500"/>
</g>
<g id="OBJECTS">
	<g>
		<path class="st2" d="M417.76,232.27c-23.34,34.95-73.16,143.04-60.9,183.15l-178.71,0.04c0,0-25.82-19.23-50.91-52.65
			c-4.56-6.07-9.09-12.62-13.44-19.6c-4.62-7.4-9.02-15.29-13.02-23.64c-11.63-24.21-19.93-52.27-20.27-83.28
			C79.34,128.94,172.25,29.17,298.65,69.43C425.05,109.69,441.09,197.32,417.76,232.27z"/>
		<g>
			<g>
				<path class="st3" d="M305.94,416.69c-0.36,0-0.71-0.16-0.96-0.46l-95.3-118.49c-0.42-0.53-0.34-1.3,0.19-1.73
					c0.53-0.42,1.3-0.34,1.73,0.19l95.3,118.49c0.43,0.53,0.34,1.3-0.19,1.73C306.49,416.6,306.21,416.69,305.94,416.69z"/>
			</g>
			<g>
				<path class="st4" d="M158.11,416.69c-0.27,0-0.54-0.09-0.77-0.27c-0.53-0.43-0.61-1.2-0.19-1.73l95.3-118.49
					c0.43-0.53,1.2-0.61,1.73-0.19c0.53,0.43,0.61,1.2,0.19,1.73l-95.3,118.49C158.83,416.53,158.47,416.69,158.11,416.69z"/>
			</g>
			<g>
				<path class="st4" d="M253.41,416.69c-0.36,0-0.71-0.16-0.96-0.46l-95.3-118.49c-0.42-0.53-0.34-1.3,0.19-1.73
					c0.53-0.42,1.3-0.34,1.73,0.19l95.3,118.49c0.43,0.53,0.34,1.3-0.19,1.73C253.96,416.6,253.69,416.69,253.41,416.69z"/>
			</g>
			<path class="st3" d="M175,300.11h-44.28c-1.74,0-3.15-1.41-3.15-3.15l0,0c0-1.74,1.41-3.15,3.15-3.15H175
				c1.74,0,3.15,1.41,3.15,3.15l0,0C178.14,298.7,176.74,300.11,175,300.11z"/>
			<path class="st4" d="M302.39,300.11H175.84c-1.74,0-3.15-1.41-3.15-3.15l0,0c0-1.74,1.41-3.15,3.15-3.15h126.55V300.11z"/>
			<g>
				<path class="st3" d="M209.2,356.21c0,1.9-1.54,3.44-3.44,3.44c-1.9,0-3.44-1.54-3.44-3.44c0-1.9,1.54-3.44,3.44-3.44
					C207.66,352.78,209.2,354.32,209.2,356.21z"/>
			</g>
			<path class="st5" d="M261.73,356.21c0,1.9-1.54,3.44-3.44,3.44c-1.9,0-3.44-1.54-3.44-3.44c0-1.9,1.54-3.44,3.44-3.44
				C260.19,352.78,261.73,354.32,261.73,356.21z"/>
		</g>
		<g>
			<path class="st6" d="M216.01,199.9H171.4c-2.2,0-3.99-1.79-3.99-3.99v-33.17c0-2.2,1.79-3.99,3.99-3.99h44.61
				c2.2,0,3.99,1.79,3.99,3.99v33.17C220,198.12,218.21,199.9,216.01,199.9z"/>
			<path class="st7" d="M205.11,176.92h-1.65c-0.25-0.9-0.63-1.76-1.11-2.54l1.27-1.27c0.49-0.49,0.49-1.27,0-1.76l-1.79-1.79
				c-0.49-0.49-1.27-0.49-1.76,0l-1.35,1.35c-0.75-0.42-1.55-0.75-2.4-0.97v-2.03c0-0.69-0.56-1.24-1.24-1.24h-2.54
				c-0.69,0-1.24,0.56-1.24,1.24v2.05c-0.82,0.21-1.6,0.52-2.33,0.92l-1.49-1.49c-0.49-0.49-1.27-0.49-1.76,0l-1.79,1.79
				c-0.49,0.49-0.49,1.27,0,1.76l1.38,1.38c-0.46,0.73-0.82,1.53-1.08,2.37h-1.94c-0.69,0-1.24,0.56-1.24,1.24v2.54
				c0,0.69,0.56,1.24,1.24,1.24h1.7c0.19,0.94,0.51,1.83,0.95,2.66l-1.16,1.16c-0.49,0.49-0.49,1.27,0,1.76l1.79,1.79
				c0.49,0.49,1.27,0.49,1.76,0l1.01-1.01c0.84,0.55,1.76,0.97,2.74,1.24v1.41c0,0.69,0.56,1.24,1.24,1.24h2.54
				c0.69,0,1.24-0.56,1.24-1.24v-1.31c1.02-0.24,1.97-0.63,2.84-1.15l0.97,0.97c0.49,0.49,1.27,0.49,1.76,0l1.79-1.79
				c0.49-0.49,0.49-1.27,0-1.76l-0.99-0.99c0.49-0.85,0.86-1.77,1.09-2.76h1.54c0.69,0,1.24-0.56,1.24-1.24v-2.54
				C206.36,177.48,205.8,176.92,205.11,176.92z M195.06,185.94c-4.5,0.85-8.37-3.02-7.52-7.52c0.48-2.52,2.5-4.54,5.02-5.02
				c4.5-0.85,8.37,3.02,7.52,7.52C199.6,183.44,197.57,185.47,195.06,185.94z"/>
		</g>
		<g>
			<path class="st4" d="M283.16,177.17h-44.61c-2.2,0-3.99-1.79-3.99-3.99v-33.17c0-2.2,1.79-3.99,3.99-3.99h44.61
				c2.2,0,3.99,1.79,3.99,3.99v33.17C287.15,175.39,285.37,177.17,283.16,177.17z"/>
			<g>
				<g>
					<g>
						<path class="st7" d="M251.98,163.51c-0.31,0-0.63-0.13-0.87-0.38l-5.54-5.93c-0.48-0.51-0.48-1.35,0-1.86l5.64-6.03
							c0.48-0.51,1.26-0.51,1.74,0c0.48,0.51,0.48,1.34,0,1.86l-4.77,5.1l4.67,5c0.48,0.51,0.48,1.34,0,1.86
							C252.61,163.39,252.3,163.51,251.98,163.51z"/>
					</g>
					<g>
						<path class="st7" d="M269.74,163.51c-0.31,0-0.63-0.13-0.87-0.38c-0.48-0.51-0.48-1.34,0-1.86l4.68-5l-4.77-5.1
							c-0.48-0.51-0.48-1.34,0-1.86c0.48-0.51,1.26-0.51,1.74,0l5.64,6.03c0.23,0.25,0.36,0.58,0.36,0.93
							c0,0.35-0.13,0.68-0.36,0.93l-5.54,5.93C270.37,163.39,270.05,163.51,269.74,163.51z"/>
					</g>
				</g>
				<g>
					<path class="st7" d="M258.11,165.14c-0.15,0-0.31-0.03-0.46-0.1c-0.63-0.27-0.93-1.04-0.67-1.71l5.5-14.46
						c0.26-0.67,0.97-1,1.6-0.72c0.63,0.27,0.93,1.04,0.67,1.71l-5.5,14.46C259.05,164.83,258.59,165.14,258.11,165.14z"/>
				</g>
			</g>
		</g>
		<g>
			<g>
				<path class="st7" d="M323.43,185.08H212.75v-3.4c0-0.92,0.74-1.66,1.66-1.66h107.36c0.92,0,1.66,0.74,1.66,1.66V185.08z"/>
				<path class="st8" d="M320.34,244.08h-104.5c-1.71,0-3.09-1.38-3.09-3.09v-55.92h110.68v55.92
					C323.43,242.7,322.05,244.08,320.34,244.08z"/>
				<g>
					<g>
						<path class="st4" d="M318.12,182.55c0,0.43-0.35,0.78-0.78,0.78c-0.43,0-0.78-0.35-0.78-0.78c0-0.43,0.35-0.78,0.78-0.78
							C317.77,181.77,318.12,182.12,318.12,182.55z"/>
						<path class="st4" d="M312.77,182.55c0,0.43-0.35,0.78-0.78,0.78c-0.43,0-0.78-0.35-0.78-0.78c0-0.43,0.35-0.78,0.78-0.78
							C312.42,181.77,312.77,182.12,312.77,182.55z"/>
						<path class="st4" d="M307.42,182.55c0,0.43-0.35,0.78-0.78,0.78c-0.43,0-0.78-0.35-0.78-0.78c0-0.43,0.35-0.78,0.78-0.78
							C307.07,181.77,307.42,182.12,307.42,182.55z"/>
					</g>
				</g>
				<path class="st6" d="M279.95,193.05h-61.46c-0.59,0-1.07-0.48-1.07-1.07l0,0c0-0.59,0.48-1.07,1.07-1.07h61.46
					c0.59,0,1.07,0.48,1.07,1.07l0,0C281.02,192.57,280.54,193.05,279.95,193.05z"/>
				<path class="st6" d="M279.95,199.86h-61.46c-0.59,0-1.07-0.48-1.07-1.07l0,0c0-0.59,0.48-1.07,1.07-1.07h61.46
					c0.59,0,1.07,0.48,1.07,1.07l0,0C281.02,199.38,280.54,199.86,279.95,199.86z"/>
				<path class="st6" d="M250.63,206.67h-32.14c-0.59,0-1.07-0.48-1.07-1.07l0,0c0-0.59,0.48-1.07,1.07-1.07h32.14
					c0.59,0,1.07,0.48,1.07,1.07l0,0C251.7,206.19,251.22,206.67,250.63,206.67z"/>
				<path class="st4" d="M279.95,220.28h-61.46c-0.59,0-1.07-0.48-1.07-1.07l0,0c0-0.59,0.48-1.07,1.07-1.07h61.46
					c0.59,0,1.07,0.48,1.07,1.07l0,0C281.02,219.8,280.54,220.28,279.95,220.28z"/>
				<path class="st4" d="M250.63,227.09h-32.14c-0.59,0-1.07-0.48-1.07-1.07l0,0c0-0.59,0.48-1.07,1.07-1.07h32.14
					c0.59,0,1.07,0.48,1.07,1.07l0,0C251.7,226.61,251.22,227.09,250.63,227.09z"/>
				<path class="st6" d="M250.63,233.9h-32.14c-0.59,0-1.07-0.48-1.07-1.07l0,0c0-0.59,0.48-1.07,1.07-1.07h32.14
					c0.59,0,1.07,0.48,1.07,1.07l0,0C251.7,233.42,251.22,233.9,250.63,233.9z"/>
				<path class="st7" d="M279.95,206.67h-23.1c-0.59,0-1.07-0.48-1.07-1.07l0,0c0-0.59,0.48-1.07,1.07-1.07h23.1
					c0.59,0,1.07,0.48,1.07,1.07l0,0C281.02,206.19,280.54,206.67,279.95,206.67z"/>
				<path class="st4" d="M310.45,191.38l-16.33,16.33c-0.42,0.42-1.1,0.42-1.51,0l0,0c-0.42-0.42-0.42-1.1,0-1.51l16.33-16.33
					c0.42-0.42,1.1-0.42,1.51,0l0,0C310.87,190.29,310.87,190.96,310.45,191.38z"/>
				
					<ellipse transform="matrix(0.2307 -0.973 0.973 0.2307 15.6887 464.3943)" class="st4" cx="301.53" cy="222.28" rx="9.63" ry="9.63"/>
				<path class="st6" d="M300.27,228.99c0,3.01-2.44,5.45-5.45,5.45c-3.01,0-5.45-2.44-5.45-5.45c0-3.01,2.44-5.45,5.45-5.45
					C297.83,223.54,300.27,225.98,300.27,228.99z"/>
			</g>
			<polyline class="st8" points="212.75,238.11 212.75,257.58 230.65,239.69 			"/>
		</g>
		<g>
			<polygon class="st9" points="193.7,262.85 232.97,262.85 247.16,290.17 207.9,290.17 			"/>
			<path class="st7" d="M208.7,288.15l-11.76-22.63c-0.25-0.47,0.1-1.04,0.63-1.04h33.97c0.27,0,0.51,0.15,0.63,0.38l11.76,22.63
				c0.25,0.47-0.1,1.04-0.63,1.04h-33.97C209.06,288.54,208.82,288.39,208.7,288.15z"/>
			<rect x="207.9" y="290.17" class="st10" width="31.8" height="3.65"/>
			<path class="st11" d="M267.02,290.17h-31.38c-1.01,0-1.82,0.82-1.82,1.82l0,0c0,1.01,0.82,1.82,1.82,1.82h31.38
				c1.01,0,1.82-0.82,1.82-1.82l0,0C268.84,290.99,268.03,290.17,267.02,290.17z"/>
			<path class="st10" d="M207.9,290.17l-14.2-27.33l-0.71,0.53c-0.46,0.34-0.6,0.97-0.33,1.48l15.24,28.96V290.17z"/>
			<rect x="218.7" y="291.88" class="st11" width="3.5" height="0.61"/>
			<rect x="223.1" y="291.88" class="st11" width="3.5" height="0.61"/>
			<rect x="227.5" y="291.88" class="st11" width="3.5" height="0.61"/>
		</g>
		<g>
			<path class="st8" d="M279.48,343.66c0,0-32.57,25.36-37.73,31.8c-1.95,2.44-5.34,6.71-8.86,11.09
				c-5.78,7.19-11.91,14.69-12.64,14.87c-1.16,0.29-10.93-7.15-11.23-8.75c-0.18-1,8.72-16.27,16.42-28.55
				c4.69-7.46,8.93-13.83,10.42-15.21c3.94-3.65,28.16-16.48,28.16-16.48L279.48,343.66z"/>
			<path class="st12" d="M217.33,396.01c0,0,30.43-43.31,45.7-50.6"/>
			<path class="st13" d="M313.43,232.46c-0.34,0.79-0.74,1.6-1.18,2.44c-2.38,4.55-0.62,9.11-3.34,10.27
				c-0.16,0.07-0.34,0.13-0.55,0.17c-3.5,0.78-11.57-3.89-11.93-6.22c-0.35-2.33,2.49-6.33,0-6.81c-2.49-0.48-3.83,3.7-3.83,3.7
				c-2.05,0.21-2.77-3.22-6.13-3.22c-0.47,0-0.94,0.07-1.39,0.18c-1.58,0.39-2.96,1.37-3.85,2.12c-0.65,0.55-1.03,0.98-1.03,0.98
				s-2.99-1.89-2.85-5.61c0.24-5.9,2.41-10.21,7.66-11.08c0.58-6.56,5.98-10.07,13.2-10.29c6.33-0.2,7.28,5.49,7.42,6.91
				c-0.06-1.06-0.35-4.53-1.86-6.91c3.17-0.14,5.96,2.12,5.23,9.49c0.73-2.19,3.28-3.58,5.25-1.97c-1.82,0-3.57,3.06-3.57,3.06
				s2.14,1.37,3.59,3.9C315.5,225.65,315.04,228.74,313.43,232.46z"/>
			<path class="st14" d="M308.91,245.17l-0.08,1.08l-0.28,3.83c0,0-5.83,4.98-9.13,0c-0.02-0.03-0.04-0.07-0.07-0.1
				c-1.02-1.52-1.95-2.05-2.79-2.15c-1.83-0.22-3.3,1.56-4.82-0.37c-4.35-5.52-6.09-11.93-6.65-14.49c0.45-0.11,0.92-0.18,1.39-0.18
				c3.36,0,4.08,3.43,6.13,3.22c0,0,1.34-4.18,3.83-3.7c2.49,0.48-0.35,4.48,0,6.81c0.16,1.04,1.85,2.55,3.99,3.82
				c2.5,1.5,5.61,2.68,7.58,2.46c0.12-0.02,0.24-0.03,0.35-0.06C308.56,245.3,308.74,245.24,308.91,245.17z"/>
			<path class="st15" d="M309.82,252.3c-2.63,1.79-7.44,2.09-7.44,2.09l-3.94-0.58c0,0-1.65-2.39-0.88-3.72
				c0.15-0.26,0.52-0.62,1.04-1.05c1.06-0.87,2.76-1.98,4.52-2.9c1.82-0.94,3.69-1.69,5.04-1.77
				C311.47,244.18,312.44,250.5,309.82,252.3z"/>
			<path class="st6" d="M309.04,316.14c-5.86,1.13-18.26-2.32-24.19-4.99c-1.75-0.79-2.95-1.51-3.23-2.01
				c-1.14-2.01,0.01-3.54,2.83-9.91c0.32-0.72,0.65-1.5,1.01-2.34c1.92-4.51,1.92-14.13,1.92-22.42c-0.02-7.1-0.06-13.22,1.07-14.31
				c2.45-2.36,14.66-10.08,14.66-10.08l2.43,12.67c0,0,1.38,6.43,2.82,14.83C311.03,293.04,313.96,315.19,309.04,316.14z"/>
			<path class="st8" d="M313.12,321.78c0,0.58-5.84,14.19-10.73,16.14c-4.89,1.95-34.39-0.2-34.39-0.2l-14.59,9.54l3.05,28.73
				l2.13,20.02l0.07,0.65c-4.46,2.91-15.7,3.7-16.91,1.19c-0.01-0.01-0.01-0.02-0.01-0.02c-1.17-2.53-19.06-56.4-12.06-65.74
				c7-9.33,51.92-22.95,51.92-22.95c1.17,0.74,2.53,1.42,4.01,2.01c4.99,2.05,11.34,3.33,16.17,4.08c1.86,0.29,3.49,0.5,4.73,0.65
				c1.57,0.19,2.52,0.26,2.52,0.26S313.12,321.19,313.12,321.78z"/>
			<path class="st16" d="M260.51,415.42h-37.93c-0.19-0.67,0.07-1.35,0.64-2.04c1.54-1.85,5.39-3.71,9.11-5.31
				c3.53-1.52,6.92-2.83,8.05-3.73c2.68-2.12,1.44-6.24,1.37-6.5c0.41,0.84,1.96,1.32,4,1.46c4.02,0.29,9.95-0.71,12.91-2.64
				l-0.07-0.65c1.13,2.16,1.66,12.84,1.84,17.38C260.49,414.64,260.51,415.42,260.51,415.42z"/>
			<path class="st17" d="M245.75,399.3c-0.11,1.81-0.38,4.74-0.9,5.52c-0.78,1.17-9.14,5.25-10.3,4.86
				c-0.75-0.25-1.67-1.06-2.22-1.61c3.53-1.52,6.92-2.83,8.05-3.73c2.68-2.12,1.44-6.24,1.37-6.5
				C242.16,398.69,243.71,399.16,245.75,399.3z"/>
			<path class="st17" d="M260.51,415.42h-37.93c-0.19-0.67,0.07-1.35,0.64-2.04h37.22C260.49,414.64,260.51,415.42,260.51,415.42z"
				/>
			<path class="st16" d="M220.25,401.42c0,0-2.88,7.6-5.38,11.61c-0.99,1.6-1.93,2.64-2.59,2.39c-2.33-0.88-25.77-20.81-23.53-22.26
				c0.33-0.21,0.85-0.36,1.51-0.44c2.04-0.26,5.42,0.02,8.54,0.34c2.68,0.28,5.18,0.58,6.48,0.58c3.31,0,3.74-0.97,3.74-0.97
				c0.07,0.38,0.7,1.11,1.62,2C213.54,397.42,219.37,401.64,220.25,401.42z"/>
			<path class="st17" d="M210.64,394.67c-4.97,3.29-10.15,1.31-11.17,0.56c-0.75-0.55-0.75-1.57-0.67-2.16
				c2.68,0.28,5.18,0.58,6.48,0.58c3.31,0,3.74-0.97,3.74-0.97C209.09,393.05,209.72,393.78,210.64,394.67z"/>
			<path class="st17" d="M214.87,413.03c-0.99,1.6-1.93,2.64-2.59,2.39c-2.33-0.88-25.77-20.81-23.53-22.26
				c0.33-0.21,0.85-0.36,1.51-0.44L214.87,413.03z"/>
			<path class="st14" d="M284.86,291.32c-1.83,2.55-5.12,6.45-7.82,6.06c-0.1-0.02-0.2-0.03-0.34-0.06
				c-5.16-0.91-35.48-8.51-36.91-8.8c-1.46-0.29-11.66-0.38-11.08-1.46c0.58-1.07,6.42-4.47,7.97-4.39
				c1.56,0.08,7.69,1.86,13.81,1.66c6.13-0.19,22.17,0,22.17,0l0.78-1.34l1.15-1.98C274.27,286.95,281.43,291.8,284.86,291.32z"/>
			<path class="st12" d="M284.86,313.46c0,0-1.4,7.44,4.05,9.92"/>
			<path class="st12" d="M282,319.44c0,0-36.02,15.36-37.75,20.13c-1.73,4.76,9.16,56.43,9.16,56.43"/>
			<path class="st18" d="M313.12,321.78c0,0.58-5.84,14.19-10.73,16.14c-4.89,1.95-34.39-0.2-34.39-0.2l-14.59,9.54l3.05,28.73
				c0,0-6.16-32.81-6.16-34.96c0-1.83,40.74-13.55,51.48-25.8c4.21,0.66,7.25,0.91,7.25,0.91S313.12,321.19,313.12,321.78z"/>
			<path class="st15" d="M293.91,286.96c-2.53,3.58-6.61,8.14-9.47,12.26c0.32-0.72,0.65-1.5,1.01-2.34
				c1.92-4.51,1.92-14.13,1.92-22.42l8.73-5.78C296.11,268.69,298,281.18,293.91,286.96z"/>
			<path class="st19" d="M286.46,290.21c-0.38,0.34-0.76,0.69-1.15,1.01c-0.14,0.05-0.29,0.08-0.45,0.1
				c-3.43,0.48-10.59-4.36-10.27-10.3c0.02-0.44,0.38-1.33,0.95-2.48c2.93-5.91,11.75-19.06,13.37-18.46c0,0,5.66,0.88,7.2,8.61
				C297.55,275.95,292.35,284.75,286.46,290.21z"/>
			<path class="st15" d="M306.52,315.88c-1.24-0.15-2.87-0.36-4.73-0.65c-4.83-0.75-11.17-2.04-16.17-4.08
				c4.4-0.16,13.82-3.05,14.96-24.62c0.52,4.04,1.29,8.22,2.37,12.5C304.41,304.72,305.77,310.71,306.52,315.88z"/>
			<path class="st15" d="M304.19,244.74c-0.45,0.52-0.8,1-1.07,1.4c-1.76,0.92-3.46,2.03-4.52,2.9c-0.74-0.81-1.42-1.13-2.05-1.2
				l3.88-4.89C301.61,243.66,302.92,244.29,304.19,244.74z"/>
			<path class="st15" d="M284.86,291.32c-1.83,2.55-5.12,6.45-7.82,6.06c-0.1-0.02-0.2-0.03-0.34-0.06
				c-3.34-4.83-3.46-11.16-3.27-14.32l1.15-1.98C274.27,286.95,281.43,291.8,284.86,291.32z"/>
			<path class="st15" d="M313.43,232.46c-0.34,0.79-0.74,1.6-1.18,2.44c-1.17,2.23-1.33,4.46-1.53,6.3
				c-0.39-0.3-0.79-0.58-1.19-0.82c-2.53,1.51-4.23,3.07-5.33,4.35l-0.01,0.01c-3.57-1.28-7.51-4.01-7.75-5.62
				c-0.35-2.33,2.49-6.33,0-6.81c-2.49-0.48-3.83,3.7-3.83,3.7c-2.05,0.21-2.77-3.22-6.13-3.22c-0.47,0-0.94,0.07-1.39,0.18
				c-1.58,0.39-2.96,1.37-3.85,2.12c0,0,3.78-5.31,9.72-4.24c0,0-0.87-1.65-4.86-1.46c8.36-2.73,13.71-1.65,16.29,1.36
				C304.48,233.22,309.41,236.27,313.43,232.46z"/>
		</g>
		<g>
			<path class="st10" d="M330.43,347.26h-29.18c0,0,23.15-6.81,23.15-52.71c0-0.59,0-1.17-0.01-1.75
				c-0.24-30.68-6.79-47.59-14.87-52.42c2.53-1.5,5.89-2.93,10.34-3.92c1.94-0.44,4.08-0.79,6.44-1.04
				c19.98-2.04,35.94,5.79,37.84,14.66C366.03,258.95,354.35,347.26,330.43,347.26z"/>
			<path class="st9" d="M324.4,294.55c0,45.9-23.15,52.71-23.15,52.71h-47.84l1.99-1.42l12.6-8.12l25.28-1.75
				c1.36-5.64,5.06-5.83,10.7-6.42c3.28-0.34,3.6-5.88,2.6-13.2c-0.73-5.27-2.14-11.47-3.63-17.33c-1.08-4.28-1.86-8.46-2.37-12.5
				c-0.61-4.72-0.88-9.23-0.91-13.48c-0.07-9.67,1.1-17.94,2.35-23.92c0.11-0.58,0.24-1.14,0.36-1.67c0-0.02,0.01-0.04,0.01-0.06
				c0.11-0.25,0.61-1.29,1.79-2.66l0.01-0.01c1.1-1.29,2.8-2.85,5.33-4.35c0.4,0.24,0.8,0.52,1.19,0.82
				c7.52,5.73,13.45,22.45,13.68,51.6C324.4,293.38,324.4,293.96,324.4,294.55z"/>
			<path class="st10" d="M315.17,415.42h-34.44c-1.18,0-1.69-1.49-0.76-2.22l8.62-6.74c3.82-3,6.06-7.59,6.06-12.44v-46.76h6.61
				v46.76c0,4.85,2.23,9.45,6.07,12.44l8.61,6.74C316.86,413.93,316.35,415.42,315.17,415.42z"/>
			<g class="st15">
				<g>
					<path class="st20" d="M341.44,237.18c0,0,0.25,0.64,0.66,1.93"/>
					<path class="st21" d="M343.26,243.1c1.17,4.39,2.69,11.22,3.9,20.53c3.13,24.15-0.05,58.06-21.05,79.53"/>
					<path class="st20" d="M324.62,344.63c-0.49,0.47-0.99,0.93-1.5,1.39"/>
				</g>
			</g>
			<path class="st18" d="M301.25,347.26v12.77c-2.29,1.2-4.62,2.11-6.61,2.78v-15.55H301.25z"/>
			<path class="st18" d="M310.4,327.42c-1.56,4.86-11.27,3.99-12.45,7.59c-2.5,7.63-3.89,4.27-13.5,5.25
				c-5.5,0.56-9.49,4.08-11.9,7.01h-19.13l1.99-1.42l12.6-8.12l25.28-1.75c1.36-5.64,5.06-5.83,10.7-6.42
				c3.28-0.34,3.6-5.88,2.6-13.2c-0.73-5.27-2.14-11.47-3.63-17.33c-1.08-4.28-1.86-8.46-2.37-12.5c-0.61-4.72-0.88-9.23-0.91-13.48
				C303.42,292.54,311.55,323.82,310.4,327.42z"/>
			<path class="st18" d="M324.4,294.55c0-0.59,0-1.17-0.01-1.75c-0.24-30.68-6.79-47.59-14.87-52.42c2.53-1.5,5.89-2.93,10.34-3.92
				c-1.33,1.92-2.73,4.81-2.07,7.9c1.17,5.46,14.4,26.46,9.34,60.11c-3.65,24.28-2.44,36.91,1.38,42.79h-27.25
				C301.25,347.26,324.4,340.45,324.4,294.55z"/>
		</g>
		<path class="st15" d="M157.46,269.55c-0.02,1.06-0.11,2.07-0.31,2.96h-9.39c-2.76-1.83-7.26-5.46-9.96-10.9
			c2.51,2.73,6.8,6.06,11.17,7.08C152.78,269.57,155.62,269.19,157.46,269.55z"/>
		<g>
			<path class="st6" d="M179.26,232.27c-1.05,3.81-5.85,11.19-10.24,19.1c-4.8,8.63-9.09,17.87-7.41,23.74
				c0.42,1.47,0.61,2.55,0.61,3.33c0.02,2.55-1.92,1.76-3.88,0.31c-2-1.48-4.02-3.64-4.02-3.64l0.15-11.38c0,0-6.45-5.93-1.15-18.89
				c0.34-0.82,0.72-1.67,1.15-2.55c7.29-14.73,18.23-30.19,7.87-34.57C176.64,206.83,181.45,224.31,179.26,232.27z"/>
			<g class="st22">
				<path d="M162.34,207.71c2.68,0.58,5.01,2.38,6.49,4.67c0.4,0.56,0.68,1.19,1,1.79c0.24,0.64,0.54,1.26,0.71,1.93
					c0.19,0.66,0.38,1.32,0.47,2l0.18,1.01l0.06,1.03c-0.06,2.77-0.94,5.41-1.85,7.98c-0.95,2.56-2.05,5.07-3.19,7.55
					c-2.28,4.96-4.73,9.84-6.9,14.84c-1.07,2.5-2.1,5.02-2.86,7.62c-0.39,1.29-0.68,2.61-0.85,3.93c-0.17,1.32-0.15,2.67,0.27,3.86
					l0,0.01c0.07,0.21-0.04,0.45-0.25,0.52c-0.21,0.07-0.45-0.04-0.52-0.25c0,0,0,0,0-0.01c-0.47-1.4-0.44-2.86-0.26-4.23
					c0.2-1.38,0.52-2.73,0.93-4.05c0.81-2.63,1.88-5.16,2.99-7.66c2.24-4.99,4.75-9.84,7.09-14.76c1.17-2.46,2.29-4.95,3.27-7.49
					c0.94-2.54,1.84-5.16,1.93-7.87l-0.05-1.01l-0.16-1c-0.09-0.68-0.26-1.33-0.45-1.99c-0.15-0.66-0.45-1.28-0.68-1.92
					c-0.31-0.61-0.58-1.23-0.97-1.79C167.31,210.15,165.01,208.33,162.34,207.71z"/>
			</g>
			<path class="st19" d="M172.7,255.26c-4.37,11.52,0,20.27-6.56,21.51c-3,0.57-4.33-1.65-4.88-4.24c-0.65-3.06-0.22-6.62-0.22-6.62
				s1.11-2.85,3.45-5.61C166.39,258.05,169.1,255.85,172.7,255.26z"/>
			<path class="st10" d="M157.46,269.55c-0.02,2.68-0.63,4.96-1.87,6.15c-0.12,0.12-0.25,0.23-0.36,0.32
				c-3.1,2.51-5.08-2.09-5.08-2.09s-8.25-4.07-12.34-12.33c-3.13-6.34-3.83-15.17,3.54-26.51c1.08,8.08,5.51,13.58,9.9,18.8
				c0,0.01,0,0.01,0,0.01c0.55,0.65,1.09,1.29,1.63,1.94C155.9,259.49,157.5,265.08,157.46,269.55z"/>
			<g class="st22">
				<path d="M141.34,235.1c-0.71,3.47-0.89,7.05-0.56,10.57c0.37,3.51,1.34,6.99,3.24,9.96c1.83,3.02,4.38,5.5,6.69,8.22
					c1.15,1.36,2.25,2.81,3.03,4.46c0.78,1.65,1.14,3.53,0.99,5.37c-0.02,0.23-0.22,0.39-0.44,0.37c-0.23-0.02-0.39-0.22-0.37-0.44
					c0,0,0-0.01,0-0.01c0.17-1.7-0.12-3.43-0.83-5c-0.7-1.58-1.74-3-2.85-4.37c-2.23-2.72-4.76-5.29-6.57-8.4
					c-1.88-3.06-2.79-6.62-3.09-10.15C140.31,242.14,140.56,238.56,141.34,235.1z"/>
			</g>
			<g class="st15">
				<path d="M172.7,255.26c-1.25,1.45-2.42,2.97-3.53,4.53c-1.11,1.56-2.17,3.16-3.11,4.81c-1.89,3.3-3.5,6.84-4.03,10.55l0,0.01
					c-0.03,0.22-0.24,0.38-0.46,0.35c-0.22-0.03-0.38-0.24-0.35-0.46c0,0,0-0.01,0-0.01c0.7-3.88,2.47-7.39,4.49-10.65
					c1.02-1.64,2.14-3.2,3.3-4.72C170.17,258.15,171.39,256.67,172.7,255.26z"/>
			</g>
			<path class="st10" d="M170.04,275.39l-2.8,17.19c-0.14,0.72-0.77,1.24-1.51,1.24H148.3c-0.74,0-1.37-0.52-1.51-1.24l-2.28-13.96
				l-0.52-3.23c-0.17-0.94,0.55-1.81,1.51-1.81h23.04C169.5,273.58,170.22,274.45,170.04,275.39z"/>
			<path class="st9" d="M172.7,278.89h-31.36l0.83-4.68c0.18-0.98,1.03-1.7,2.03-1.7h25.65c0.99,0,1.85,0.72,2.02,1.7L172.7,278.89z
				"/>
			<path class="st15" d="M161.03,265.91c0,0-0.43,3.54,0.21,6.6h-4.1c0.2-0.89,0.29-1.9,0.31-2.96c0.04-4.46-1.56-10.06-4.59-13.7
				c-0.54-0.65-1.08-1.28-1.63-1.94c0,0,0,0,0-0.01c0.07-2.51,0.64-5.52,2.08-9.06c0.24,4.13,1.25,11.32,5.38,12.08
				c3.13,0.57,7.22-2.54,10.33-5.55c-1.65,2.95-3.22,5.98-4.53,8.93C162.15,263.06,161.03,265.91,161.03,265.91z"/>
			<path class="st15" d="M158.71,293.82H148.3c-0.74,0-1.37-0.52-1.51-1.24l-2.23-13.68h9c-0.22,1.92-0.49,5.49,0.19,8.27
				C154.27,289.36,156.2,292.19,158.71,293.82z"/>
		</g>
		<g>
			<path class="st8" d="M237.58,152.24h-44.61c-2.2,0-3.99-1.79-3.99-3.99v-33.17c0-2.2,1.79-3.99,3.99-3.99h44.61
				c2.2,0,3.99,1.79,3.99,3.99v33.17C241.57,150.46,239.78,152.24,237.58,152.24z"/>
			<g>
				<path class="st7" d="M201.23,125.65v4.43c0,0.35,0.29,0.64,0.64,0.64h2.45c0.35,0,0.64-0.29,0.64-0.64v-4.43
					c0-0.35,0.29-0.64,0.64-0.64h0.24c0.35,0,0.64,0.29,0.64,0.64v12.04c0,0.35-0.29,0.64-0.64,0.64h-0.24
					c-0.35,0-0.64-0.29-0.64-0.64v-4.94c0-0.35-0.29-0.64-0.64-0.64h-2.45c-0.35,0-0.64,0.29-0.64,0.64v4.94
					c0,0.35-0.29,0.64-0.64,0.64h-0.24c-0.35,0-0.64-0.29-0.64-0.64v-12.04c0-0.35,0.29-0.64,0.64-0.64h0.24
					C200.94,125.01,201.23,125.3,201.23,125.65z"/>
				<path class="st7" d="M209.78,126.37h-1.15c-0.35,0-0.64-0.29-0.64-0.64v-0.08c0-0.35,0.29-0.64,0.64-0.64h5.1
					c0.35,0,0.64,0.29,0.64,0.64v0.08c0,0.35-0.29,0.64-0.64,0.64h-1.15c-0.35,0-0.64,0.29-0.64,0.64v10.68
					c0,0.35-0.29,0.64-0.64,0.64h-0.24c-0.35,0-0.64-0.29-0.64-0.64v-10.68C210.42,126.66,210.13,126.37,209.78,126.37z"/>
				<path class="st7" d="M223.84,132.6c-0.1-1.76-0.2-3.72-0.14-5.22h-0.08c-0.3,1.48-0.65,3.06-1.07,4.63l-1.64,6.25h-0.97
					l-1.56-5.99c-0.44-1.7-0.83-3.34-1.09-4.88h-0.06c0,1.56-0.08,3.42-0.16,5.32l-0.23,5.02c-0.02,0.34-0.3,0.61-0.64,0.61h-0.07
					c-0.37,0-0.66-0.31-0.64-0.68l0.71-12.04c0.02-0.34,0.3-0.6,0.64-0.6h0.54c0.29,0,0.55,0.2,0.62,0.48l1.44,5.61
					c0.45,1.76,0.79,3.06,1.07,4.59h0.06c0.26-1.52,0.55-2.79,0.99-4.59l1.38-5.6c0.07-0.29,0.33-0.49,0.62-0.49h0.59
					c0.34,0,0.62,0.27,0.64,0.61l0.7,12.04c0.02,0.37-0.27,0.68-0.64,0.68h-0.13c-0.34,0-0.63-0.27-0.64-0.61L223.84,132.6z"/>
				<path class="st7" d="M228.25,125.01h0.24c0.35,0,0.64,0.29,0.64,0.64v10.75c0,0.35,0.29,0.64,0.64,0.64h2.47
					c0.35,0,0.64,0.29,0.64,0.64l0,0c0,0.35-0.29,0.64-0.64,0.64h-3.99c-0.35,0-0.64-0.29-0.64-0.64v-12.04
					C227.61,125.3,227.9,125.01,228.25,125.01z"/>
			</g>
		</g>
		<g>
			<g>
				<g>
					<path class="st8" d="M257.92,114.62c1.67,0,2.06-1.12,2.06-2.12c0-0.88-0.09-1.73-0.18-2.58c-0.09-0.91-0.18-1.73-0.18-2.67
						c0-2.73,1.67-3.88,3.82-3.88h0.36v1.58h-0.46c-1.27,0-1.79,0.91-1.79,2.28c0,0.82,0.09,1.58,0.18,2.31
						c0.06,0.79,0.15,1.52,0.15,2.25c0.03,2.37-0.79,3.19-2.09,3.55v0.06c1.3,0.39,2.12,1.21,2.09,3.61c0,0.76-0.09,1.52-0.15,2.28
						c-0.09,0.76-0.18,1.52-0.18,2.34c0,1.37,0.46,2.31,1.82,2.31h0.42v1.58h-0.39c-2,0-3.79-1-3.79-3.88c0-0.91,0.09-1.82,0.18-2.7
						c0.09-0.88,0.18-1.76,0.18-2.61c0-0.97-0.39-2.15-2.06-2.15V114.62z"/>
					<path class="st8" d="M288.85,116.14c-1.67,0-2.06,1.18-2.06,2.15c0,0.85,0.09,1.73,0.18,2.61c0.09,0.88,0.18,1.79,0.18,2.7
						c0,2.88-1.79,3.88-3.79,3.88h-0.39v-1.58h0.43c1.37-0.15,1.82-0.94,1.82-2.31c0-0.82-0.09-1.58-0.15-2.34
						c-0.09-0.76-0.18-1.52-0.18-2.28c-0.03-2.4,0.79-3.22,2.09-3.61v-0.06c-1.31-0.36-2.12-1.18-2.09-3.55
						c0-0.73,0.09-1.46,0.18-2.25c0.06-0.73,0.15-1.49,0.15-2.31c0-1.37-0.52-2.12-1.79-2.28h-0.46v-1.58h0.36
						c2.15,0,3.82,1.15,3.82,3.88c0,0.94-0.09,1.76-0.18,2.67c-0.09,0.85-0.18,1.7-0.18,2.58c0,1,0.39,2.12,2.06,2.12V116.14z"/>
				</g>
			</g>
			<polygon class="st4" points="278.44,118.34 278.44,112.51 273.38,109.59 268.33,112.51 268.33,118.34 273.38,121.26 			"/>
		</g>
		<g>
			<path class="st4" d="M316.48,147.43c-4.75-2.37-10.47-1.43-14.22,2.32c-4.64,4.64-4.79,12.07-0.49,16.91l-1.85-0.22
				c-0.22-0.03-0.43,0.13-0.45,0.36c-0.03,0.22,0.13,0.43,0.36,0.45l2.82,0.34c0.11,0.01,0.22-0.02,0.3-0.08
				c0.08-0.06,0.14-0.16,0.15-0.27l0.32-2.73c0.03-0.22-0.13-0.43-0.36-0.45c-0.22-0.03-0.43,0.13-0.45,0.36l-0.21,1.74
				c-4.04-4.52-3.9-11.47,0.44-15.81c3.51-3.51,8.84-4.38,13.28-2.17c0.2,0.1,0.45,0.02,0.55-0.18
				C316.76,147.78,316.68,147.53,316.48,147.43z"/>
			<path class="st4" d="M305.85,170.08c4.75,2.37,10.47,1.43,14.22-2.32c4.64-4.64,4.79-12.07,0.49-16.91l1.85,0.22
				c0.22,0.03,0.43-0.13,0.45-0.36c0.03-0.22-0.13-0.43-0.36-0.45l-2.82-0.34c-0.11-0.01-0.22,0.02-0.3,0.08
				c-0.08,0.06-0.14,0.16-0.15,0.27l-0.32,2.73c-0.03,0.22,0.13,0.43,0.36,0.45c0.22,0.03,0.43-0.13,0.45-0.36l0.21-1.74
				c4.04,4.52,3.9,11.47-0.44,15.81c-3.51,3.51-8.84,4.38-13.28,2.17c-0.2-0.1-0.45-0.02-0.55,0.18
				C305.57,169.73,305.65,169.98,305.85,170.08z"/>
		</g>
		<g>
			<path class="st4" d="M415.31,193.05h-74.07c-1.35,0-2.44-1.09-2.44-2.44l0,0c0-1.35,1.09-2.44,2.44-2.44h74.07
				c1.35,0,2.44,1.09,2.44,2.44l0,0C417.76,191.96,416.66,193.05,415.31,193.05z"/>
			<path class="st6" d="M388.86,203.68h-47.62c-1.35,0-2.44-1.09-2.44-2.44l0,0c0-1.35,1.09-2.44,2.44-2.44h47.62
				c1.35,0,2.44,1.09,2.44,2.44l0,0C391.31,202.59,390.21,203.68,388.86,203.68z"/>
			<path class="st6" d="M388.86,215.09h-47.62c-1.35,0-2.44-1.09-2.44-2.44l0,0c0-1.35,1.09-2.44,2.44-2.44h47.62
				c1.35,0,2.44,1.09,2.44,2.44l0,0C391.31,214,390.21,215.09,388.86,215.09z"/>
		</g>
		<g>
			<path class="st6" d="M152.67,152.43h-38.48c-1.35,0-2.44-1.09-2.44-2.44l0,0c0-1.35,1.09-2.44,2.44-2.44h38.48
				c1.35,0,2.44,1.09,2.44,2.44l0,0C155.11,151.34,154.02,152.43,152.67,152.43z"/>
			<path class="st4" d="M138.14,163.06h-23.95c-1.35,0-2.44-1.09-2.44-2.44l0,0c0-1.35,1.09-2.44,2.44-2.44h23.95
				c1.35,0,2.44,1.09,2.44,2.44l0,0C140.58,161.97,139.49,163.06,138.14,163.06z"/>
			<path class="st4" d="M138.14,174.47h-23.95c-1.35,0-2.44-1.09-2.44-2.44l0,0c0-1.35,1.09-2.44,2.44-2.44h23.95
				c1.35,0,2.44,1.09,2.44,2.44l0,0C140.58,173.38,139.49,174.47,138.14,174.47z"/>
		</g>
		<g>
			<path class="st19" d="M381.94,329.65c-2.4,6.96-5.26,13.03-8.26,18.51c-10.35,18.91-22.38,30.95-22.83,48.58
				c0,0-3.73-16.62-0.74-35.55c1.68-10.63,5.48-21.99,13.24-31.55c21.62-26.58,18.42-50.76,18.42-50.76S392.61,298.72,381.94,329.65
				z"/>
			<g class="st15">
				<path d="M356.47,376.06c-0.32-2.21-0.23-4.35-0.03-6.51c0.21-2.15,0.6-4.28,1.15-6.36c1.07-4.17,2.66-8.19,4.6-12.02
					c0.93-1.94,2.04-3.77,3.13-5.62l3.48-5.37c2.22-3.61,4.09-7.45,5.66-11.4c1.59-3.95,2.92-8,4.05-12.11
					c1.13-4.11,2.06-8.27,2.79-12.47c0.73-4.2,1.27-8.43,1.53-12.69c0.13-2.13,0.19-4.26,0.09-6.39c-0.05-1.06-0.12-2.13-0.29-3.18
					c-0.18-1.05-0.37-2.11-0.87-3.06c0.51,0.94,0.73,2.01,0.92,3.06c0.19,1.05,0.28,2.12,0.35,3.18c0.13,2.13,0.1,4.27,0.01,6.41
					c-0.19,4.27-0.69,8.52-1.38,12.74c-0.69,4.22-1.57,8.41-2.66,12.54c-1.08,4.14-2.38,8.22-3.94,12.21
					c-1.54,3.99-3.39,7.88-5.6,11.57l-3.45,5.39c-1.07,1.83-2.17,3.65-3.08,5.57c-1.9,3.79-3.46,7.76-4.5,11.86
					c-0.53,2.05-0.91,4.13-1.14,6.23c-0.22,2.08-0.31,4.24-0.03,6.27l0.01,0.04c0.03,0.22-0.13,0.43-0.35,0.46
					C356.71,376.44,356.5,376.29,356.47,376.06z"/>
			</g>
			<path class="st15" d="M373.68,348.17c-10.35,18.91-22.38,30.95-22.83,48.58c0,0-3.73-16.62-0.74-35.55
				C356.83,358.46,366.27,354,373.68,348.17z"/>
			<path class="st6" d="M356.86,415.43c0,0-7.56-12.93,10.33-28.88c17.89-15.95,31.9-37.05,29.17-54.12
				c-17.12,19.88-62.63,48.08-49.79,82.99L356.86,415.43z"/>
			<g class="st15">
				<path d="M396.36,332.43c-1.71,3.77-4,7.24-6.46,10.56c-2.49,3.3-5.23,6.41-8.15,9.35c-2.89,2.96-6.08,5.62-9.24,8.27
					c-3.14,2.66-5.99,5.67-8.53,8.91c-5.08,6.48-9.05,13.86-11.44,21.73c-1.17,3.94-1.97,8-2.08,12.1
					c-0.12,4.08,0.4,8.23,2.04,11.95c0.09,0.21,0,0.45-0.21,0.54s-0.45,0-0.54-0.21l0,0c-1.66-3.89-2.16-8.15-2-12.3
					c0.15-4.17,1-8.28,2.21-12.25c2.48-7.93,6.54-15.33,11.71-21.81c2.58-3.24,5.47-6.24,8.66-8.89c3.19-2.63,6.39-5.24,9.3-8.18
					c2.93-2.9,5.69-5.99,8.21-9.26C392.31,339.64,394.62,336.18,396.36,332.43z"/>
			</g>
		</g>
		<g>
			<path class="st19" d="M100.06,321.78c0,0-9.34-8.51-14.29-29.78c28.59,24.24,35.59,45.83,35.59,45.83L100.06,321.78z"/>
			<g class="st15">
				<path d="M85.76,292c3.98,5.69,7.87,11.44,11.65,17.27c1.89,2.91,3.74,5.85,5.54,8.83c1.79,2.98,3.54,5.99,4.99,9.19
					c0.09,0.21,0,0.45-0.2,0.54c-0.21,0.09-0.45,0-0.54-0.2c0,0,0,0,0-0.01l-0.01-0.01c-1.36-3.15-3.05-6.19-4.77-9.2
					c-1.73-3-3.53-5.97-5.36-8.92C93.4,303.59,89.63,297.77,85.76,292z"/>
			</g>
			<path class="st6" d="M120.77,333.74c-5.14-4.63-12.75-9.22-20-14.17c-9.63-6.57-18.61-13.79-20.27-22.61
				c-3.78,31.81,33.22,46.14,33.22,46.14l0.07,0.11l13.44,19.6C127.24,362.81,132.73,344.53,120.77,333.74z"/>
			<g class="st15">
				<path d="M80.5,296.96c0.02,3.55,1.05,7.02,2.54,10.2c1.56,3.17,3.67,6.05,6.18,8.52c2.51,2.48,5.41,4.52,8.38,6.44
					c2.96,1.93,5.97,3.79,8.9,5.79c5.84,3.97,11.43,8.59,15.34,14.6c3.97,5.96,5.8,13.18,5.8,20.3c0,0.23-0.18,0.41-0.41,0.41
					c-0.23,0-0.41-0.18-0.41-0.41l0-0.01c0.06-6.99-1.66-14.07-5.5-19.97c-3.79-5.94-9.28-10.59-15.06-14.59
					c-2.9-2.02-5.89-3.91-8.83-5.87c-2.95-1.95-5.85-4.03-8.35-6.55c-2.51-2.51-4.6-5.43-6.13-8.62
					C81.49,304,80.49,300.51,80.5,296.96z"/>
			</g>
		</g>
		<path class="st2" d="M384.21,429.62H135.6c-3.92,0-7.1-3.18-7.1-7.1l0,0c0-3.92,3.18-7.1,7.1-7.1h248.61c3.92,0,7.1,3.18,7.1,7.1
			l0,0C391.31,426.44,388.13,429.62,384.21,429.62z"/>
	</g>
</g>
<g id="DESIGNED_BY_FREEPIK" class="st0">
	<g class="st23">
		<g id="XMLID_319_">
			<g id="XMLID_338_">
				<path id="XMLID_346_" class="st24" d="M260.1,465.47c-0.43,0.44-0.8,0.93-1.11,1.45l-0.47-0.24c-0.07-0.3-0.35-0.5-0.66-0.47
					c-0.33,0.04-0.57,0.34-0.53,0.67c0.04,0.33,0.34,0.57,0.67,0.53c0.07-0.01,0.13-0.03,0.18-0.05l0.45,0.23
					c-0.25,0.55-0.43,1.14-0.54,1.74l0.75,0.13c0.23-1.31,0.85-2.51,1.79-3.47L260.1,465.47z"/>
				<path id="XMLID_345_" class="st24" d="M265.59,463.16c-0.17,0-0.34,0.01-0.51,0.02l-0.07-0.63c0.19-0.15,0.3-0.39,0.27-0.64
					c-0.05-0.39-0.4-0.67-0.8-0.63c-0.39,0.05-0.67,0.4-0.63,0.8c0.03,0.25,0.19,0.46,0.4,0.56l0.07,0.62
					c-0.71,0.12-1.4,0.33-2.06,0.65l0.33,0.68c0.93-0.45,1.94-0.67,3-0.67c0.5,0,0.99,0.05,1.48,0.16l0.16-0.74
					C266.69,463.22,266.14,463.16,265.59,463.16z"/>
				<path id="XMLID_344_" class="st24" d="M272.19,465.71c0.33-0.04,0.57-0.34,0.53-0.67c-0.04-0.33-0.34-0.57-0.67-0.53
					c-0.31,0.04-0.54,0.3-0.53,0.61l-0.42,0.36c-0.42-0.43-0.89-0.81-1.41-1.14l-0.4,0.64c1.13,0.71,2.02,1.73,2.56,2.93l0.69-0.31
					c-0.25-0.55-0.57-1.07-0.94-1.55l0.4-0.35C272.06,465.72,272.13,465.72,272.19,465.71z"/>
				<path id="XMLID_343_" class="st24" d="M265.04,473.37c-0.39,0.02-0.77,0.03-1.16,0.03c-0.88,0-1.73-0.06-2.48-0.18
					c-0.39-0.06-0.85-0.15-1.27-0.29c1.05,1.86,3.07,3.13,5.39,3.13c2.86,0,5.26-1.92,5.95-4.5c-0.68,0.45-1.51,0.83-2.46,1.12
					C267.84,473.05,266.46,473.29,265.04,473.37z"/>
				<path id="XMLID_339_" class="st24" d="M265.59,464.68c-3.35,0-6.08,2.67-6.08,5.94c0,0.43,0.05,0.85,0.14,1.26
					c0.67,0.48,2.71,0.89,5.35,0.73c2.88-0.17,5.3-0.96,6.67-2.16c-0.01-0.19-0.02-0.39-0.05-0.58
					C271.24,466.91,268.65,464.68,265.59,464.68z M263.43,471.19c-1.02,0-1.85-0.83-1.85-1.85c0-1.02,0.83-1.85,1.85-1.85
					c1.02,0,1.85,0.83,1.85,1.85C265.28,470.36,264.45,471.19,263.43,471.19z M268.17,470.29c-0.75,0-1.36-0.61-1.36-1.36
					s0.61-1.36,1.36-1.36c0.75,0,1.36,0.61,1.36,1.36S268.92,470.29,268.17,470.29z"/>
			</g>
			<path id="XMLID_336_" class="st24" d="M281.6,466.55c-0.29-0.12-0.81-0.31-1.38-0.24c-0.55,0.07-0.84,0.34-0.84,1.01v0.87h2.23
				v1.72h-2.23v5.45h-1.93v-5.45h-1.34v-1.72h1.34v-0.89c0-1.68,0.9-2.78,2.57-2.78c0.64,0,1.16,0.12,1.59,0.31L281.6,466.55z"/>
			<path id="XMLID_334_" class="st24" d="M286.3,469.88c-0.18-0.03-0.36-0.05-0.53-0.05c-0.9,0-1.51,0.55-1.51,1.61v3.91h-1.93
				v-7.17h1.87v0.78c0.45-0.67,1.14-0.98,2.02-0.98c0.41,0,0.85,0.13,1.09,0.34L286.3,469.88z"/>
			<path id="XMLID_331_" class="st24" d="M293.97,471.76c0,0.22-0.01,0.49-0.04,0.65h-5.08c0.21,1.04,0.93,1.49,1.84,1.49
				c0.62,0,1.3-0.25,1.81-0.69l1.13,1.24c-0.81,0.75-1.85,1.09-3.06,1.09c-2.2,0-3.72-1.5-3.72-3.75c0-2.26,1.48-3.8,3.63-3.8
				C292.54,467.99,293.96,469.52,293.97,471.76z M288.85,471.09h3.18c-0.18-0.92-0.73-1.44-1.56-1.44
				C289.55,469.65,289.02,470.2,288.85,471.09z"/>
			<path id="XMLID_328_" class="st24" d="M301.62,471.76c0,0.22-0.01,0.49-0.04,0.65h-5.08c0.21,1.04,0.93,1.49,1.84,1.49
				c0.62,0,1.3-0.25,1.81-0.69l1.13,1.24c-0.81,0.75-1.85,1.09-3.06,1.09c-2.2,0-3.72-1.5-3.72-3.75c0-2.26,1.48-3.8,3.63-3.8
				C300.2,467.99,301.61,469.52,301.62,471.76z M296.5,471.09h3.18c-0.18-0.92-0.73-1.44-1.56-1.44
				C297.21,469.65,296.67,470.2,296.5,471.09z"/>
			<path id="XMLID_325_" class="st24" d="M309.96,471.76c0,2.15-1.49,3.77-3.47,3.77c-0.96,0-1.64-0.38-2.11-0.93v3.71h-1.92v-10.13
				h1.89v0.79c0.47-0.58,1.15-0.98,2.14-0.98C308.47,467.99,309.96,469.61,309.96,471.76z M304.29,471.76
				c0,1.13,0.75,1.98,1.84,1.98c1.14,0,1.85-0.88,1.85-1.98c0-1.1-0.71-1.98-1.85-1.98C305.03,469.79,304.29,470.63,304.29,471.76z"
				/>
			<path id="XMLID_322_" class="st24" d="M313.07,465.84c0,0.7-0.54,1.23-1.24,1.23c-0.7,0-1.23-0.53-1.23-1.23
				c0-0.7,0.53-1.24,1.23-1.24C312.53,464.59,313.07,465.14,313.07,465.84z M312.81,475.35h-1.93v-7.17h1.93V475.35z"/>
			<path id="XMLID_320_" class="st24" d="M316.03,470.74l2.7-2.55h2.37l-3.48,3.38l3.5,3.8h-2.38l-2.72-2.9v2.9h-1.93V464.7h1.93
				V470.74z"/>
		</g>
		<g>
			<path class="st24" d="M184.41,475.29v-1.05c-0.53,0.72-1.39,1.23-2.39,1.23c-1.85,0-3.15-1.41-3.15-3.71
				c0-2.26,1.29-3.72,3.15-3.72c0.95,0,1.82,0.47,2.39,1.25v-3.76h1.1v9.77H184.41z M184.41,473.37v-3.21
				c-0.4-0.62-1.24-1.14-2.12-1.14c-1.42,0-2.27,1.17-2.27,2.74c0,1.57,0.85,2.72,2.27,2.72
				C183.17,474.48,184.02,473.99,184.41,473.37z"/>
			<path class="st24" d="M186.93,471.74c0-2.05,1.46-3.71,3.49-3.71c2.14,0,3.4,1.67,3.4,3.79v0.28h-5.73
				c0.09,1.33,1.03,2.45,2.55,2.45c0.81,0,1.63-0.32,2.18-0.89l0.53,0.72c-0.7,0.7-1.65,1.08-2.81,1.08
				C188.44,475.46,186.93,473.96,186.93,471.74z M190.4,468.95c-1.51,0-2.26,1.27-2.31,2.36h4.64
				C192.72,470.25,192.01,468.95,190.4,468.95z"/>
			<path class="st24" d="M194.61,474.35l0.57-0.79c0.47,0.54,1.36,1.01,2.33,1.01c1.08,0,1.67-0.51,1.67-1.22
				c0-1.71-4.38-0.66-4.38-3.28c0-1.1,0.95-2.04,2.64-2.04c1.2,0,2.05,0.45,2.62,1.03l-0.51,0.76c-0.42-0.51-1.2-0.89-2.11-0.89
				c-0.97,0-1.57,0.48-1.57,1.11c0,1.55,4.38,0.53,4.38,3.28c0,1.19-0.95,2.14-2.78,2.14C196.31,475.46,195.32,475.11,194.61,474.35
				z"/>
			<path class="st24" d="M201.48,466.47c0-0.41,0.34-0.75,0.73-0.75c0.41,0,0.75,0.34,0.75,0.75c0,0.41-0.34,0.73-0.75,0.73
				C201.81,467.2,201.48,466.88,201.48,466.47z M201.67,475.29v-7.07h1.1v7.07H201.67z"/>
			<path class="st24" d="M204.58,477.11l0.56-0.82c0.59,0.7,1.29,0.97,2.3,0.97c1.17,0,2.27-0.57,2.27-2.12v-1.01
				c-0.51,0.72-1.38,1.26-2.37,1.26c-1.85,0-3.15-1.38-3.15-3.66c0-2.27,1.29-3.68,3.15-3.68c0.95,0,1.8,0.47,2.37,1.25v-1.07h1.1
				v6.87c0,2.34-1.64,3.08-3.37,3.08C206.24,478.16,205.42,477.93,204.58,477.11z M209.71,473.25v-3.09
				c-0.38-0.62-1.23-1.14-2.11-1.14c-1.42,0-2.27,1.13-2.27,2.7c0,1.55,0.85,2.7,2.27,2.7
				C208.48,474.41,209.33,473.87,209.71,473.25z"/>
			<path class="st24" d="M217.41,475.29v-4.63c0-1.24-0.63-1.64-1.58-1.64c-0.86,0-1.68,0.53-2.09,1.1v5.17h-1.1v-7.07h1.1v1.03
				c0.5-0.59,1.46-1.2,2.52-1.2c1.48,0,2.26,0.75,2.26,2.29v4.97H217.41z"/>
			<path class="st24" d="M219.93,471.74c0-2.05,1.46-3.71,3.49-3.71c2.14,0,3.4,1.67,3.4,3.79v0.28h-5.73
				c0.09,1.33,1.03,2.45,2.55,2.45c0.81,0,1.63-0.32,2.18-0.89l0.53,0.72c-0.7,0.7-1.66,1.08-2.81,1.08
				C221.44,475.46,219.93,473.96,219.93,471.74z M223.4,468.95c-1.51,0-2.26,1.27-2.31,2.36h4.64
				C225.72,470.25,225.02,468.95,223.4,468.95z"/>
			<path class="st24" d="M233.35,475.29v-1.05c-0.53,0.72-1.39,1.23-2.39,1.23c-1.85,0-3.15-1.41-3.15-3.71
				c0-2.26,1.29-3.72,3.15-3.72c0.95,0,1.82,0.47,2.39,1.25v-3.76h1.1v9.77H233.35z M233.35,473.37v-3.21
				c-0.4-0.62-1.25-1.14-2.12-1.14c-1.42,0-2.27,1.17-2.27,2.74c0,1.57,0.85,2.72,2.27,2.72
				C232.1,474.48,232.95,473.99,233.35,473.37z"/>
			<path class="st24" d="M239.69,475.29v-9.77h1.1v3.76c0.57-0.78,1.42-1.25,2.39-1.25c1.85,0,3.15,1.46,3.15,3.72
				c0,2.3-1.3,3.71-3.15,3.71c-1,0-1.86-0.51-2.39-1.23v1.05H239.69z M242.9,474.48c1.44,0,2.29-1.16,2.29-2.72
				c0-1.57-0.85-2.74-2.29-2.74c-0.86,0-1.73,0.53-2.11,1.14v3.21C241.17,473.99,242.04,474.48,242.9,474.48z"/>
			<path class="st24" d="M247.53,477.06c0.16,0.07,0.43,0.12,0.6,0.12c0.48,0,0.81-0.16,1.05-0.75l0.47-1.07l-2.96-7.15h1.19
				l2.36,5.8l2.34-5.8h1.2l-3.54,8.51c-0.42,1.03-1.14,1.42-2.08,1.44c-0.23,0-0.6-0.04-0.81-0.1L247.53,477.06z"/>
		</g>
	</g>
</g>
</svg>
